<?xml version="1.0" encoding="UTF-8"?>
<!-- Generator: Adobe Illustrator 21.0.2, SVG Export Plug-In . SVG Version: 6.00 Build 0)  -->
<svg version="1.1" id="Layer_1" xmlns="http://www.w3.org/2000/svg" xmlns:xlink="http://www.w3.org/1999/xlink" x="0px" y="0px" viewBox="0 0 80 80" style="enable-background:new 0 0 80 80;" xml:space="preserve">
<style type="text/css">
	.st0{fill:#FFFFFF;}
	.st1{fill:#2569B3;}
</style>
<circle class="st0" cx="40" cy="40" r="37.8"/>
<path class="st1" d="M40,78.3C18.9,78.3,1.7,61.1,1.7,40S18.9,1.7,40,1.7S78.3,18.9,78.3,40S61.1,78.3,40,78.3z"/>
<g>
	<path class="st0" d="M41.9,27.6l10.5,10.5L31.3,59.2H20.8V48.7L41.9,27.6z M30,56l2.3-2.3l-6-6L24,50v2.7h3.2V56H30z M43.3,32.4   c0-0.4-0.2-0.6-0.6-0.6c-0.2,0-0.3,0.1-0.4,0.2L28.5,45.8c-0.1,0.1-0.2,0.3-0.2,0.4c0,0.4,0.2,0.6,0.6,0.6c0.2,0,0.3-0.1,0.4-0.2   L43,32.9C43.2,32.7,43.3,32.6,43.3,32.4z M59.2,30c0,0.9-0.3,1.7-0.9,2.3l-4.2,4.2L43.5,25.9l4.2-4.2c0.6-0.6,1.4-1,2.3-1   c0.9,0,1.7,0.3,2.3,1l6,5.9C58.9,28.3,59.2,29.1,59.2,30z"/>
</g>
</svg>